<?xml version="1.0" standalone="no"?>
<!DOCTYPE svg PUBLIC "-//W3C//DTD SVG 20010904//EN"
 "http://www.w3.org/TR/2001/REC-SVG-20010904/DTD/svg10.dtd">
<svg version="1.0" xmlns="http://www.w3.org/2000/svg"
 width="360.000000pt" height="360.000000pt" viewBox="0 0 360.000000 360.000000"
 preserveAspectRatio="xMidYMid meet">
<metadata>
Created by potrace 1.14, written by Peter Selinger 2001-2017
</metadata>
<g transform="translate(0.000000,360.000000) scale(0.100000,-0.100000)"
fill="#000000" stroke="none">
<path d="M789 3366 c-2 -2 -46 -6 -96 -9 -141 -10 -287 -64 -398 -151 -52 -40
-144 -136 -151 -158 -3 -10 -9 -18 -13 -18 -4 0 -21 -28 -38 -62 -32 -64 -57
-123 -52 -123 1 0 -3 -9 -9 -21 -32 -59 -37 -310 -8 -408 45 -155 135 -292
254 -390 l43 -35 -35 -15 c-51 -21 -120 -96 -136 -147 -11 -35 -14 -175 -15
-699 0 -360 3 -673 7 -695 11 -51 61 -124 103 -152 69 -45 58 -45 1311 -45
l1192 0 48 22 c56 24 87 51 119 101 30 46 38 90 38 203 0 50 2 96 4 102 3 8
16 6 41 -6 34 -17 94 -44 217 -100 28 -13 108 -49 179 -81 136 -62 163 -66
191 -26 13 18 15 114 15 667 0 637 0 647 -20 668 -34 36 -51 32 -220 -45 -166
-77 -401 -183 -404 -183 -2 0 -3 49 -3 109 0 133 -13 184 -61 238 -70 77 -103
87 -320 93 -7 0 12 23 43 52 127 117 202 256 241 448 17 84 3 242 -30 340 -32
94 -51 132 -108 212 -155 216 -434 338 -698 304 -169 -22 -321 -99 -442 -222
-65 -66 -80 -86 -119 -157 l-26 -48 -28 48 c-83 143 -202 252 -347 318 -31 14
-67 28 -79 30 -12 3 -37 10 -56 16 -19 6 -52 12 -73 14 -22 2 -43 6 -48 9 -5
3 -11 4 -13 2z m71 -156 c67 -14 68 -14 105 -29 212 -83 364 -277 391 -501 4
-30 7 -59 6 -65 0 -5 -2 -26 -2 -45 -3 -66 -31 -163 -67 -237 -51 -104 -170
-224 -260 -264 -18 -8 -33 -17 -33 -21 0 -5 -3 -7 -7 -6 -5 1 -30 -5 -58 -14
-189 -63 -404 -23 -566 107 -152 120 -232 298 -224 495 3 82 10 134 21 152 3
4 7 16 9 25 17 84 120 224 218 296 50 38 157 87 220 101 71 17 180 19 247 6z
m1440 -19 c180 -59 328 -207 389 -388 12 -35 23 -80 26 -100 6 -39 6 -153 1
-188 -5 -39 -39 -146 -47 -151 -5 -3 -9 -11 -9 -19 0 -19 -56 -101 -105 -153
-47 -51 -157 -132 -179 -132 -8 0 -17 -4 -20 -9 -6 -9 -108 -39 -158 -47 -292
-41 -565 130 -665 418 -21 61 -25 91 -25 183 0 61 2 117 5 125 2 8 7 29 12 45
21 82 87 197 149 259 81 82 221 161 308 172 24 4 45 8 48 11 12 13 210 -7 270
-26z m-853 -928 c20 -55 118 -176 191 -236 l34 -27 -39 -1 c-48 -1 -404 -1
-420 0 -6 1 23 36 65 79 42 42 93 105 112 139 37 66 47 74 57 46z m-757 -808
c0 -377 1 -404 18 -426 26 -31 78 -31 104 0 17 22 18 49 18 425 l0 402 953 -1
c714 0 957 -3 973 -12 12 -7 29 -24 38 -38 16 -25 18 -79 18 -687 0 -637 -1
-662 -20 -687 -10 -14 -30 -32 -43 -38 -32 -17 -2375 -19 -2412 -2 -13 6 -32
25 -43 42 -18 30 -18 63 -19 681 0 483 3 656 12 677 23 56 52 64 237 65 l166
2 0 -403z m2770 -340 c0 -278 -4 -505 -8 -505 -9 0 -474 211 -488 222 -7 5
-11 97 -11 289 l0 281 76 35 c42 19 132 60 201 91 69 31 145 66 170 78 25 12
48 20 52 17 4 -2 8 -231 8 -508z"/>
<path d="M690 3039 c-67 -10 -69 -11 -139 -47 -64 -33 -155 -116 -166 -153 -4
-10 -11 -19 -16 -19 -5 0 -8 -3 -7 -7 1 -5 -4 -21 -11 -38 -15 -36 -38 -152
-35 -180 12 -124 52 -215 129 -290 139 -136 329 -167 505 -82 103 50 206 189
228 309 35 186 -67 382 -244 472 -63 31 -170 47 -244 35z m185 -163 c54 -23
130 -107 150 -167 66 -199 -78 -396 -285 -391 -102 2 -193 59 -245 153 -27 48
-30 63 -30 139 0 69 4 93 23 128 76 144 236 201 387 138z"/>
<path d="M1993 3020 c-126 -35 -237 -136 -279 -252 -23 -62 -25 -77 -28 -143
-8 -170 84 -322 241 -400 76 -38 81 -39 183 -39 89 -1 113 3 160 24 294 129
361 491 133 713 -38 38 -135 92 -183 103 -60 14 -167 11 -227 -6z m241 -149
c56 -27 110 -82 138 -140 32 -64 32 -187 1 -247 -29 -55 -84 -108 -141 -135
-58 -28 -164 -35 -206 -14 -16 8 -34 15 -41 15 -24 0 -114 95 -134 142 -69
160 8 333 172 389 65 22 152 18 211 -10z"/>
<path d="M1454 1548 c-50 -23 -81 -59 -94 -108 -6 -24 -10 -155 -10 -335 1
-301 4 -329 42 -376 22 -27 101 -58 138 -55 47 5 56 9 205 94 72 42 153 88
180 104 28 16 61 34 75 41 14 6 27 14 30 18 3 3 24 16 47 28 66 33 98 82 100
154 1 49 -3 67 -22 95 -29 42 -25 39 -230 157 -93 54 -192 111 -220 127 -127
74 -180 86 -241 56z m111 -146 c17 -10 55 -32 85 -49 30 -17 119 -67 197 -112
78 -44 145 -81 148 -81 12 0 35 -29 35 -44 0 -12 -156 -116 -174 -116 -2 0
-76 -42 -165 -94 -107 -62 -168 -92 -181 -89 -19 5 -20 15 -20 297 0 161 3
296 7 299 11 12 37 8 68 -11z"/>
<path d="M725 818 c-27 -15 -35 -28 -35 -59 0 -34 34 -69 68 -69 33 0 45 8 61
37 17 33 14 51 -14 78 -26 27 -49 31 -80 13z"/>
</g>
</svg>
